# xmcd
#
# Track frame offsets: 
#        182
#        18052
#        37767
#        60942
#        100515
#        121842
#        177085
#        204265
#        220080
#
# Disc length: 3205 seconds
#
# Revision: 1
# Processed by: cddbd v1.5.2PL0 Copyright (c) Steve Scherf et al.
# Submitted via: ExactAudioCopyFreeDBPlugin 1.0
#
DISCID=5c0c8309
DTITLE=Various Artist - British blues
DYEAR=1900
DGENRE=Blues
TTITLE0=Graham Bond - Stormy monday blues
TTITLE1=Graham Bond - What'd I say
TTITLE2=Graham Bond - Person to person
TTITLE3=Man - Life on the road
TTITLE4=Fleetwood Mac - Whole lotta love
TTITLE5=Colloseum - Butty's blues
TTITLE6=Van Morrison - You're my woman
TTITLE7=Van Morrison - These dreams (of you)
TTITLE8=John Mayall - Room to move
EXTD=
EXTT0=
EXTT1=
EXTT2=
EXTT3=
EXTT4=
EXTT5=
EXTT6=
EXTT7=
EXTT8=
PLAYORDER=
